<?xml version="1.0" encoding="UTF-8" standalone="no"?>
<svg
   xmlns:dc="http://purl.org/dc/elements/1.1/"
   xmlns:cc="http://creativecommons.org/ns#"
   xmlns:rdf="http://www.w3.org/1999/02/22-rdf-syntax-ns#"
   xmlns:svg="http://www.w3.org/2000/svg"
   xmlns="http://www.w3.org/2000/svg"
   xmlns:sodipodi="http://sodipodi.sourceforge.net/DTD/sodipodi-0.dtd"
   xmlns:inkscape="http://www.inkscape.org/namespaces/inkscape"
   version="1.1"
   id="Layer_1"
   x="0px"
   y="0px"
   viewBox="0 0 459.1 119.7"
   xml:space="preserve"
   sodipodi:docname="KNIMELogoTM_white.svg"
   width="250"
   height="65.181877"
   inkscape:version="1.0.1 (c497b03c, 2020-09-10)"><metadata
   id="metadata57"><rdf:RDF><cc:Work
       rdf:about=""><dc:format>image/svg+xml</dc:format><dc:type
         rdf:resource="http://purl.org/dc/dcmitype/StillImage" /><dc:title>KNIME_Logo_CB_NT</dc:title></cc:Work></rdf:RDF></metadata><defs
   id="defs55" /><sodipodi:namedview
   pagecolor="#ffffff"
   bordercolor="#666666"
   borderopacity="1"
   objecttolerance="10"
   gridtolerance="10"
   guidetolerance="10"
   inkscape:pageopacity="0"
   inkscape:pageshadow="2"
   inkscape:window-width="1107"
   inkscape:window-height="563"
   id="namedview53"
   showgrid="false"
   scale-x="1.8364"
   fit-margin-top="0"
   fit-margin-left="0"
   fit-margin-right="0"
   fit-margin-bottom="0"
   inkscape:zoom="2.1562829"
   inkscape:cx="175.69578"
   inkscape:cy="1.1892883"
   inkscape:window-x="1976"
   inkscape:window-y="371"
   inkscape:window-maximized="0"
   inkscape:current-layer="Layer_1"
   inkscape:document-rotation="0" />
<style
   type="text/css"
   id="style2">
	.st0{fill:#FFD800;}
	.st1{fill:#3E3A39;}
</style>
<title
   id="title4">KNIME_Logo_CB_NT</title>
<path
   class="st0"
   d="M 69.1,0 0,119.6 H 138.1 Z M 53.3,105.3 V 59.7 l 1.4,-6.3 39.5,22.8 4.8,4.4 -39.5,22.8 z m 2,-54.6 1.9,-8.6 28.2,26 z m -4.6,55.4 -8.4,2.6 8.4,-37.4 c 0,0 0,34.8 0,34.8 z m 50.4,-23.7 6.5,5.9 -36.7,11.5 z m -42.6,-43.6 2.7,-7.2 32,39.1 z m -19.6,70.6 -7.6,1.3 17.9,-47.4 z m 71,-18.4 4.8,5.9 -49.9,8.2 z M 62.3,26.8 65.1,21 99.3,72 Z m -35.7,85.3 -6.4,0.4 27.1,-55.1 z m 91.7,-11.8 3.6,5.3 -61.3,4.1 z M 103.5,70.1 66.5,14.9 69.1,10.4 Z M 43.5,54.7 14.2,114.4 H 9 Z m 16.6,59.7 66.4,-4.5 2.6,4.5 z"
   id="path6"
   inkscape:connector-curvature="0"
   style="fill:#ffd800" />
<path
   class="st1"
   d="m 171.1,23.7 c 0,5.7 -3.3,9.3 -8.6,9.3 -5.3,0 -8.6,-3.6 -8.6,-9.2 0,-5.6 3.5,-9.2 8.8,-9.2 5,0.1 8.4,3.7 8.4,9.1 z m -14.5,0 c 0,4.3 2.3,7.2 5.9,7.2 3.6,0 5.8,-2.9 5.8,-7.1 0,-4.2 -2.3,-7.1 -5.8,-7.1 -3.6,0 -5.9,2.9 -5.9,7 z"
   id="path8"
   inkscape:connector-curvature="0"
   style="fill:#ffffff;fill-opacity:1" />
<path
   class="st1"
   d="m 175.1,23.6 c 0,-1.4 0,-2.8 -0.1,-3.8 h 2.3 c 0,0.5 0.1,1.4 0.1,2.1 v 0 c 0.9,-1.6 2.6,-2.5 4.5,-2.4 3.3,0 5.6,2.7 5.6,6.6 0,4.1 -2.3,7 -5.6,7 -1.8,0 -3.5,-0.9 -4.4,-2.5 v 0 c 0,0.5 0.1,2.5 0.1,3.2 v 4.3 h -2.4 z m 2.4,2.7 c 0,2.6 1.7,4.8 3.8,4.8 2.1,0 3.6,-2.1 3.6,-4.8 0,-2.9 -1.4,-4.8 -3.6,-4.8 -2.2,0 -3.8,2.1 -3.8,4.8 z"
   id="path10"
   inkscape:connector-curvature="0"
   style="fill:#ffffff;fill-opacity:1" />
<path
   class="st1"
   d="m 192.9,26.8 c 0,2.3 1.8,4.2 4.1,4.2 0.1,0 0.3,0 0.4,0 1.3,0 2.6,-0.3 3.8,-1 l 0.1,2.2 c -1.3,0.5 -2.6,0.8 -4,0.8 -4.3,0 -6.8,-2.6 -6.8,-6.9 0,-4.1 2.5,-6.7 6.2,-6.7 3.4,0 5.6,2.1 5.6,6.4 0,0.3 0,0.7 0,1 z m 7,-1.8 c 0,-2.5 -1.4,-3.7 -3.3,-3.7 -1.9,0 -3.4,1.4 -3.6,3.7 z"
   id="path12"
   inkscape:connector-curvature="0"
   style="fill:#ffffff;fill-opacity:1" />
<path
   class="st1"
   d="m 208.2,21.8 c 0.9,-1.5 2.6,-2.4 4.3,-2.4 3.7,0 4.9,2.4 4.9,5.9 v 7.4 H 215 v -6.4 c 0,-2.5 -0.2,-4.9 -3,-4.9 -1.3,0 -2.5,0.7 -3.1,1.9 -0.5,1 -0.7,2.1 -0.6,3.2 v 6.2 h -2.4 v -9.2 c 0,-1.4 0,-2.8 -0.1,-3.8 h 2.4 c -0.1,0.6 0,1.4 0,2.1 z"
   id="path14"
   inkscape:connector-curvature="0"
   style="fill:#ffffff;fill-opacity:1" />
<path
   class="st1"
   d="m 235.9,15.5 c -0.4,-0.1 -0.8,-0.2 -1.2,-0.2 -1.6,0 -2.2,0.9 -2.2,3.2 v 1.3 h 3.5 v 1.9 h -3.5 v 11 H 230 v -11 h -3 v -1.9 h 3.1 v -1.2 c 0,-3.1 1.1,-5.2 4.2,-5.2 0.6,0 1.2,0.1 1.8,0.2 z"
   id="path16"
   inkscape:connector-curvature="0"
   style="fill:#ffffff;fill-opacity:1" />
<path
   class="st1"
   d="m 251.1,26.3 c 0,3.7 -3,6.7 -6.7,6.7 -3.7,0 -6.7,-3 -6.7,-6.7 v 0 c -0.2,-3.6 2.5,-6.7 6.1,-6.9 0.2,0 0.4,0 0.6,0 3.9,0 6.7,2.9 6.7,6.9 z m -10.8,0 c 0,2.8 1.7,4.7 4.2,4.7 2.5,0 4.1,-1.9 4.1,-4.7 0,-2.8 -1.7,-4.9 -4.2,-4.9 -2.5,0 -4.1,2 -4.1,4.9 z"
   id="path18"
   inkscape:connector-curvature="0"
   style="fill:#ffffff;fill-opacity:1" />
<path
   class="st1"
   d="m 257.1,21.9 c 0.6,-1.5 2.1,-2.4 3.6,-2.5 0.4,0 0.8,0 1.2,0.2 v 2.3 c -0.4,-0.2 -0.9,-0.2 -1.3,-0.2 -2.2,0 -3.6,1.9 -3.6,5.2 v 5.9 h -2.4 v -9.1 c 0,-1.4 0,-2.8 -0.1,-3.8 h 2.4 c 0.1,0.6 0.2,1.3 0.2,2 z"
   id="path20"
   inkscape:connector-curvature="0"
   style="fill:#ffffff;fill-opacity:1" />
<path
   class="st1"
   d="m 274.5,32.7 h -2.6 V 15 h 2.6 z"
   id="path22"
   inkscape:connector-curvature="0"
   style="fill:#ffffff;fill-opacity:1" />
<path
   class="st1"
   d="m 281.7,21.8 c 0.9,-1.5 2.6,-2.4 4.3,-2.4 3.7,0 4.9,2.4 4.9,5.9 v 7.4 h -2.4 v -6.4 c 0,-2.5 -0.2,-4.9 -3,-4.9 -1.3,0 -2.5,0.7 -3.1,1.9 -0.5,1 -0.7,2.1 -0.6,3.2 v 6.2 h -2.4 v -9.2 c 0,-1.4 0,-2.8 -0.1,-3.8 h 2.4 c -0.1,0.6 0,1.4 0,2.1 z"
   id="path24"
   inkscape:connector-curvature="0"
   style="fill:#ffffff;fill-opacity:1" />
<path
   class="st1"
   d="m 297.7,21.8 c 0.9,-1.5 2.6,-2.4 4.3,-2.4 3.7,0 4.8,2.4 4.8,5.9 v 7.4 h -2.4 v -6.4 c 0,-2.5 -0.2,-4.9 -3,-4.9 -1.3,0 -2.5,0.7 -3.1,1.9 -0.5,1 -0.7,2.1 -0.6,3.2 v 6.2 h -2.4 v -9.2 c 0,-1.4 0,-2.8 -0.1,-3.8 h 2.4 c 0,0.6 0,1.4 0.1,2.1 z"
   id="path26"
   inkscape:connector-curvature="0"
   style="fill:#ffffff;fill-opacity:1" />
<path
   class="st1"
   d="m 323.7,26.3 c 0.2,3.5 -2.6,6.6 -6.1,6.7 -0.2,0 -0.4,0 -0.6,0 -3.6,0.1 -6.6,-2.7 -6.7,-6.3 0,-0.1 0,-0.3 0,-0.4 -0.2,-3.6 2.5,-6.7 6.1,-6.9 0.2,0 0.4,0 0.6,0 4,0 6.7,2.9 6.7,6.9 z m -10.7,0 c 0,2.8 1.7,4.7 4.1,4.7 2.4,0 4.1,-1.9 4.1,-4.7 0,-2.8 -1.7,-4.9 -4.2,-4.9 -2.5,0 -4,2 -4,4.9 z"
   id="path28"
   inkscape:connector-curvature="0"
   style="fill:#ffffff;fill-opacity:1" />
<path
   class="st1"
   d="m 330.5,27.7 c 0.3,0.8 0.7,2.2 0.9,3.1 v 0 c 0.2,-0.9 0.7,-2.4 1,-3.1 l 2.6,-7.9 h 2.5 l -4.8,13 h -2.9 l -4.7,-13 h 2.6 z"
   id="path30"
   inkscape:connector-curvature="0"
   style="fill:#ffffff;fill-opacity:1" />
<path
   class="st1"
   d="m 340.4,20.5 c 1.3,-0.7 2.8,-1.1 4.3,-1.1 3.8,0 5.2,2.2 5.2,5.2 0,1.7 0,3.7 0,4.2 0,1.4 0,3 0.1,3.9 h -2.2 c 0,-0.2 0,-0.7 0,-1.1 0,-0.4 0,-0.8 0,-1.2 v 0 c -0.9,1.6 -2.5,2.5 -4.3,2.4 -2.8,0 -4.5,-1.5 -4.5,-3.9 0,-2.7 2.5,-4.2 6.8,-4.2 0.5,0 1.2,0 1.8,0.1 v -0.1 c 0,-2.2 -1.1,-3.3 -3.3,-3.3 -1.4,0 -2.7,0.5 -3.8,1.2 z m 6,6 c -3.2,0 -4.8,0.8 -4.8,2.5 0,1.3 1,2 2.5,2 1.4,0 2.6,-0.7 3.2,-1.9 0.3,-0.8 0.5,-1.7 0.4,-2.6 -0.3,0 -0.7,0 -1.3,0 z"
   id="path32"
   inkscape:connector-curvature="0"
   style="fill:#ffffff;fill-opacity:1" />
<path
   class="st1"
   d="m 357.9,19.8 h 3.5 v 1.9 h -3.5 v 5.7 c 0,2.1 0.3,3.5 2.2,3.5 0.5,0 1,-0.1 1.4,-0.3 l 0.1,1.9 c -0.7,0.2 -1.4,0.4 -2.1,0.4 -3.3,0 -4,-2 -4,-4.8 v -6.4 h -3 v -1.9 h 3 v -3.1 l 2.4,-0.8 z"
   id="path34"
   inkscape:connector-curvature="0"
   style="fill:#ffffff;fill-opacity:1" />
<path
   class="st1"
   d="m 367.2,17.4 h -2.7 v -2.7 h 2.7 z m -0.1,15.3 h -2.5 v -13 h 2.5 z"
   id="path36"
   inkscape:connector-curvature="0"
   style="fill:#ffffff;fill-opacity:1" />
<path
   class="st1"
   d="m 384.1,26.3 c 0.2,3.5 -2.5,6.5 -6.1,6.7 -0.2,0 -0.4,0 -0.6,0 -3.6,0.1 -6.6,-2.7 -6.7,-6.3 0,-0.2 0,-0.3 0,-0.5 -0.2,-3.6 2.5,-6.7 6.1,-6.9 0.2,0 0.4,0 0.6,0 3.9,0.1 6.7,3 6.7,7 z m -10.8,0 c 0,2.8 1.7,4.7 4.1,4.7 2.4,0 4.1,-1.9 4.1,-4.7 0,-2.8 -1.7,-4.9 -4.2,-4.9 -2.5,0 -4,2 -4,4.9 z"
   id="path38"
   inkscape:connector-curvature="0"
   style="fill:#ffffff;fill-opacity:1" />
<path
   class="st1"
   d="m 390.1,21.8 c 0.9,-1.5 2.6,-2.4 4.3,-2.4 3.7,0 4.9,2.4 4.9,5.9 v 7.4 h -2.4 v -6.4 c 0,-2.5 -0.3,-4.9 -3,-4.9 -1.3,0 -2.5,0.7 -3.2,1.9 -0.5,1 -0.7,2.1 -0.6,3.2 v 6.2 h -2.4 v -9.2 c 0,-1.4 0,-2.8 -0.1,-3.8 h 2.4 c 0,0.6 0,1.4 0.1,2.1 z"
   id="path40"
   inkscape:connector-curvature="0"
   style="fill:#ffffff;fill-opacity:1" />
<path
   class="st1"
   d="m 167.2,51 v 31.7 h 0.3 L 192.7,51 h 15.1 l -25.6,32.3 33.1,36.3 h -17 L 167.2,85.9 v 33.7 H 153.9 V 51 Z"
   id="path42"
   inkscape:connector-curvature="0"
   style="fill:#ffffff;fill-opacity:1" />
<path
   class="st1"
   d="m 233.5,51 40.8,47.9 V 51 h 13 v 68.6 h -11.4 l -41,-48.7 v 48.7 h -13 V 51 Z"
   id="path44"
   inkscape:connector-curvature="0"
   style="fill:#ffffff;fill-opacity:1" />
<path
   class="st1"
   d="m 315.5,51 v 68.6 H 302.2 V 51 Z"
   id="path46"
   inkscape:connector-curvature="0"
   style="fill:#ffffff;fill-opacity:1" />
<path
   class="st1"
   d="m 342.3,51 22.6,27 22.5,-27 h 11.8 v 68.6 H 386 V 71.4 h -0.4 l -19.8,24.2 h -1.9 L 344,71.4 h -0.4 v 48.2 H 330.3 V 51 Z"
   id="path48"
   inkscape:connector-curvature="0"
   style="fill:#ffffff;fill-opacity:1" />
<path
   class="st1"
   d="m 458.4,51 v 10.4 h -31.1 v 18 h 29.8 v 10.4 h -29.8 v 19.5 h 31.8 v 10.4 H 414 V 51 Z"
   id="path50"
   inkscape:connector-curvature="0"
   style="fill:#ffffff;fill-opacity:1" />
</svg>
